<svg width="16" height="18" viewBox="0 0 16 18" fill="none" xmlns="http://www.w3.org/2000/svg">
<path fill-rule="evenodd" clip-rule="evenodd" d="M13.26 17H2.74L2.3 16.8014L2.04 16.4241L2 8.91706L2.16 8.51986L3.06 7.90421L3.8 7.12967L4.28 6.41472L4.8 5.38201L5.24 4.1507L5.44 3.39603V0.615654L5.56 0.377336L5.9 0.0794393L6.14 0L6.58 0.0397196L6.82 0.158879L7.12 0.536215L7.18 3.41589L8.84 3.39603V0.655374L9 0.337617L9.18 0.158879L9.58 0H9.86L10.18 0.119159L10.44 0.377336L10.56 0.615654V3.39603L11.12 5.18341L11.52 6.05724L12.2 7.12967L12.94 7.90421L13.74 8.42056L13.84 8.51986L14 8.91706V16.2652L13.76 16.7418L13.58 16.8808L13.26 17ZM10.76 12.6904L11.02 12.5911L11.24 12.3727L11.4 12.0152V11.7769L11.28 11.4591L11.02 11.2009L10.54 11.0421H5.46L4.98 11.2009L4.72 11.4591L4.6 11.7769V12.0152L4.76 12.3727L4.98 12.5911L5.26 12.7103L10.76 12.6904Z" fill="#6D758F"/>
</svg>
