<svg width="20" height="20" viewBox="0 0 20 20" fill="none" xmlns="http://www.w3.org/2000/svg">
<path d="M18.16 6.94918L10.4569 1.6367C10.3208 1.54844 10.1621 1.50146 9.99998 1.50146C9.83782 1.50146 9.67914 1.54844 9.5431 1.6367L1.84 6.94918C1.73419 7.02322 1.64796 7.12186 1.58873 7.23662C1.5295 7.35137 1.49905 7.4788 1.5 7.60793V15.5767C1.5 16.3516 1.80784 17.0948 2.35579 17.6427C2.90375 18.1907 3.64694 18.4985 4.42187 18.4985H6.81249V13.9829C6.81249 13.208 7.12032 12.4648 7.66828 11.9168C8.21624 11.3689 8.95943 11.061 9.73435 11.061H10.2656C11.0405 11.061 11.7837 11.3689 12.3317 11.9168C12.8796 12.4648 13.1875 13.208 13.1875 13.9829V18.4985H15.5781C16.353 18.4985 17.0962 18.1907 17.6442 17.6427C18.1921 17.0948 18.5 16.3516 18.5 15.5767V7.60793C18.5009 7.4788 18.4705 7.35137 18.4112 7.23662C18.352 7.12186 18.2658 7.02322 18.16 6.94918Z" fill="#6D758F"/>
</svg>
