<svg width="18" height="18" viewBox="0 0 18 18" fill="none" xmlns="http://www.w3.org/2000/svg">
<path d="M9 18C13.9706 18 18 13.9706 18 9C18 4.02944 13.9706 0 9 0C4.02944 0 0 4.02944 0 9C0 13.9706 4.02944 18 9 18Z" fill="#6D758F"/>
<path d="M8.99983 9.68405C10.6201 9.68405 11.9337 8.37053 11.9337 6.75023C11.9337 5.12992 10.6201 3.81641 8.99983 3.81641C7.37953 3.81641 6.06601 5.12992 6.06601 6.75023C6.06601 8.37053 7.37953 9.68405 8.99983 9.68405Z" fill="white"/>
<path d="M14.4237 14.0547C14.178 13.7571 13.9094 13.4793 13.6204 13.2237C12.3903 12.0044 10.7355 11.3094 9.0037 11.2847C7.27192 11.3094 5.61714 12.0044 4.38703 13.2237C4.10999 13.4866 3.85377 13.7706 3.62066 14.0731C3.56804 14.1462 3.52751 14.2273 3.50063 14.3132C3.8288 14.6814 4.19046 15.0183 4.58093 15.3196C5.86448 16.2918 7.43051 16.8179 9.04063 16.8179C10.6508 16.8179 12.2168 16.2918 13.5003 15.3196C13.878 15.0166 14.2272 14.6797 14.5437 14.3132C14.5187 14.2208 14.4781 14.1334 14.4237 14.0547Z" fill="white"/>
</svg>
