<svg width="18" height="18" viewBox="0 0 18 18" fill="none" xmlns="http://www.w3.org/2000/svg">
  <path d="M0 9C0 4.02944 4.02944 0 9 0C13.9706 0 18 4.02944 18 9C18 13.9706 13.9706 18 9 18C4.02944 18 0 13.9706 0 9Z" fill="#FF6155"/>
  <path fill-rule="evenodd" clip-rule="evenodd" d="M5.54906 5.54857C5.91265 5.18498 6.50215 5.18498 6.86574 5.54857L12.4519 11.1348C12.8155 11.4984 12.8155 12.0879 12.4519 12.4515C12.0884 12.8151 11.4989 12.8151 11.1353 12.4515L5.54906 6.86525C5.18547 6.50166 5.18547 5.91216 5.54906 5.54857Z" fill="white"/>
  <path fill-rule="evenodd" clip-rule="evenodd" d="M12.4519 5.54857C12.8155 5.91216 12.8155 6.50166 12.4519 6.86525L6.86574 12.4515C6.50215 12.8151 5.91265 12.8151 5.54906 12.4515C5.18547 12.0879 5.18547 11.4984 5.54906 11.1348L11.1353 5.54857C11.4989 5.18498 12.0884 5.18498 12.4519 5.54857Z" fill="white"/>
</svg>
