<svg width="24" height="24" viewBox="0 0 24 24" fill="none" xmlns="http://www.w3.org/2000/svg">
<path d="M1.9848 20.4843C1.89974 20.8458 2.22453 21.1706 2.58603 21.0855L7.35653 19.9631C7.44704 19.9418 7.52982 19.8957 7.59557 19.8299L19.9479 7.47762C20.4712 6.95429 20.4712 6.10583 19.9479 5.5825L17.4878 3.12248C16.9645 2.59915 16.116 2.59915 15.5927 3.12248L3.24043 15.4748C3.17468 15.5405 3.12857 15.6233 3.10727 15.7138L1.9848 20.4843Z" fill="white"/>
<path fill-rule="evenodd" clip-rule="evenodd" d="M12.8193 20.2653C12.8193 19.7102 13.2693 19.2603 13.8244 19.2603H21.1946C21.7497 19.2603 22.1996 19.7102 22.1996 20.2653C22.1996 20.8204 21.7497 21.2703 21.1946 21.2703H13.8244C13.2693 21.2703 12.8193 20.8204 12.8193 20.2653Z" fill="white"/>
</svg>
