<svg width="27" height="24" viewBox="0 0 27 24" fill="none" xmlns="http://www.w3.org/2000/svg">
<path d="M25.544 9.59777C25.5317 9.89275 25.3758 10.2296 25.0731 10.4957C23.8617 11.5599 22.6497 12.6231 21.4369 13.6852C20.8707 14.1821 20.3037 14.6781 19.7359 15.1734C19.6548 15.2439 19.6342 15.3065 19.6591 15.4159C20.095 17.3205 20.5273 19.226 20.9561 21.1322C21.0429 21.5153 21.1283 21.8991 21.2221 22.2809C21.3588 22.8462 21.1842 23.4049 20.7436 23.7212C20.2587 24.069 19.7439 24.0916 19.2314 23.7877C17.599 22.8173 15.9687 21.843 14.3405 20.8648C13.9604 20.6377 13.5756 20.4159 13.2018 20.1804C13.0768 20.1016 12.986 20.1009 12.8576 20.1781C10.8776 21.3667 8.8932 22.5479 6.91548 23.7361C6.49546 23.9882 6.06646 24.083 5.60221 23.8924C4.98797 23.6404 4.66705 22.9945 4.8197 22.3234C5.25136 20.4239 5.68368 18.5243 6.11667 16.6247C6.20779 16.2257 6.28927 15.8236 6.38804 15.4275C6.41664 15.3131 6.39669 15.2456 6.30989 15.1701C5.56585 14.523 4.82369 13.8736 4.08341 13.222C3.04617 12.3114 2.00493 11.4072 0.973666 10.49C0.552648 10.1162 0.39302 9.63901 0.565617 9.09328C0.738215 8.54755 1.12398 8.21899 1.69931 8.15979C2.71893 8.05537 3.74021 7.96791 4.76083 7.87446C5.77048 7.78201 6.78013 7.69022 7.78977 7.5991C8.12632 7.56884 8.46287 7.53492 8.79975 7.50931C8.90816 7.50133 8.96603 7.45377 9.0066 7.355C9.92113 5.20601 10.8372 3.05791 11.7549 0.910696C12.0083 0.317081 12.4609 -0.0144795 13.0362 0.000485568C13.6115 0.0154507 14.0266 0.296462 14.2547 0.824897C14.8756 2.26254 15.4885 3.70352 16.1041 5.14383C16.4173 5.87545 16.7313 6.60908 17.0392 7.34403C17.0864 7.4571 17.1539 7.501 17.272 7.51031C18.0834 7.57904 18.8947 7.65109 19.7057 7.72647C20.8865 7.83378 22.0671 7.94197 23.2477 8.05105C23.6229 8.0843 23.9983 8.11756 24.3724 8.15946C25.0529 8.23994 25.5494 8.80761 25.544 9.59777Z" fill="#F8FAFF" stroke="#F1F3F7" stroke-width="0.993929" stroke-linecap="round" stroke-linejoin="round"/>
</svg>
