<svg width="26" height="24" viewBox="0 0 26 24" fill="none" xmlns="http://www.w3.org/2000/svg">
<path d="M25.047 9.59777C25.0347 9.89275 24.8787 10.2296 24.5761 10.4957C23.3647 11.5599 22.1526 12.6231 20.9399 13.6852C20.3736 14.1821 19.8066 14.6781 19.2388 15.1734C19.1577 15.2439 19.1371 15.3065 19.162 15.4159C19.5979 17.3205 20.0302 19.226 20.459 21.1322C20.5458 21.5153 20.6313 21.8991 20.725 22.2809C20.8617 22.8462 20.6871 23.4049 20.2465 23.7212C19.7616 24.069 19.2468 24.0916 18.7344 23.7877C17.1019 22.8173 15.4716 21.843 13.8434 20.8648C13.4633 20.6377 13.0785 20.4159 12.7047 20.1804C12.5797 20.1016 12.4889 20.1009 12.3606 20.1781C10.3805 21.3667 8.39613 22.5479 6.41841 23.7361C5.99839 23.9882 5.56939 24.083 5.10514 23.8924C4.4909 23.6404 4.16998 22.9945 4.32263 22.3234C4.75429 20.4239 5.18661 18.5243 5.6196 16.6247C5.71072 16.2257 5.7922 15.8236 5.89097 15.4275C5.91957 15.3131 5.89962 15.2456 5.81282 15.1701C5.06878 14.523 4.32662 13.8736 3.58634 13.222C2.5491 12.3114 1.50786 11.4072 0.476595 10.49C0.0555773 10.1162 -0.104051 9.63901 0.068547 9.09328C0.241145 8.54755 0.626912 8.21899 1.20224 8.15979C2.22186 8.05537 3.24314 7.96791 4.26376 7.87446C5.27341 7.78201 6.28306 7.69022 7.2927 7.5991C7.62925 7.56884 7.9658 7.53492 8.30268 7.50931C8.41109 7.50133 8.46896 7.45377 8.50953 7.355C9.42406 5.20601 10.3402 3.05791 11.2578 0.910696C11.5112 0.317081 11.9638 -0.0144795 12.5391 0.000485568C13.1145 0.0154507 13.5295 0.296462 13.7576 0.824897C14.3785 2.26254 14.9914 3.70352 15.607 5.14383C15.9202 5.87545 16.2342 6.60908 16.5421 7.34403C16.5894 7.4571 16.6569 7.501 16.7749 7.51031C17.5864 7.57904 18.3976 7.65109 19.2086 7.72647C20.3894 7.83378 21.5701 7.94197 22.7507 8.05105C23.1258 8.0843 23.5012 8.11756 23.8754 8.15946C24.5558 8.23994 25.0523 8.80761 25.047 9.59777Z" fill="#FF6155"/>
</svg>
