<svg width="21" height="21" viewBox="0 0 21 21" fill="none" xmlns="http://www.w3.org/2000/svg">
<g clip-path="url(#clip0_499_2649)">
<path d="M5.39908 4.91956H20.1041L18.0106 13.8168C17.7388 14.972 16.708 15.7884 15.5213 15.7884H10.2447C9.08429 15.7884 8.06935 15.0071 7.77243 13.8855L5.39908 4.91956ZM5.39908 4.91956L4.72777 2.23432H1.56299" stroke="#353E5C" stroke-width="1.7" stroke-linecap="round" stroke-linejoin="round"/>
<path d="M8.27723 20.5833C8.98344 20.5833 9.55593 20.0108 9.55593 19.3046C9.55593 18.5984 8.98344 18.0259 8.27723 18.0259C7.57103 18.0259 6.99854 18.5984 6.99854 19.3046C6.99854 20.0108 7.57103 20.5833 8.27723 20.5833Z" fill="#353E5C"/>
<path d="M17.2289 20.5833C17.9351 20.5833 18.5076 20.0108 18.5076 19.3046C18.5076 18.5984 17.9351 18.0259 17.2289 18.0259C16.5227 18.0259 15.9502 18.5984 15.9502 19.3046C15.9502 20.0108 16.5227 20.5833 17.2289 20.5833Z" fill="#353E5C"/>
</g>
<defs>
<clipPath id="clip0_499_2649">
<rect width="21" height="21.6667" fill="white"/>
</clipPath>
</defs>
</svg>
